<svg id="Objects" xmlns="http://www.w3.org/2000/svg" xmlns:xlink="http://www.w3.org/1999/xlink" viewBox="0 0 130 130"><style>.st0{fill:#fff}.st1{display:none}.st2{display:inline;fill:#45464f}.st3{fill:#fff}.st3,.st4{display:inline}.st5{fill:#d4d2cf}.st6{fill:#3bbc0d}.st7{fill:#e0dedc}.st8{fill:#5f7283}.st9{fill:#45464f}.st10{fill:#32495b}.st11{fill:#ffd360}.st12{fill:#fc513f}.st13{fill:#3cbd0d}.st14{fill:#415b6d}.st15{fill:#cecece}.st16{fill:#404040}.st17{fill:#ef7f1a}.st18{fill:#3cbd0d}.st18,.st19{clip-path:url(#SVGID_2_)}.st20{fill:#f76666}.st21{fill:#4bd4c0}</style><circle class="st0" cx="65" cy="65" r="65"/><g class="st1"><path class="st2" d="M34.3 20.9c-1.2 0-2.3 1-2.3 2.3v88.6c0 1.2 1 2.3 2.3 2.3h61.3c1.2 0 2.3-1 2.3-2.3V23.1c0-1.2-1-2.3-2.3-2.3H34.3z"/><path class="st3" d="M35.8 26.2h58.4v82.5H35.8z"/><g class="st4"><path class="st5" d="M43.2 90.9h43.5v1.3H43.2zm0 3.3h43.5v1.3H43.2zm0 3.2H65v1.3H43.2z"/></g><g class="st4"><path class="st5" d="M43.2 81.2h43.5v1.3H43.2zm0 3.2h43.5v1.3H43.2zm0 3.3h43.3V89H43.2z"/></g><g class="st4"><path class="st5" d="M54.9 41h31.7v1.4H54.9zm0 9.6h31.7V52H54.9zm0 9.5h31.7v1.4H54.9zm0 9.6h31.7v1.4H54.9zm-7.6-24.1c-2.1 0-3.9-1.7-3.9-3.9 0-2.1 1.7-3.9 3.9-3.9 2.1 0 3.9 1.7 3.9 3.9-.1 2.1-1.8 3.9-3.9 3.9zm0-7c-1.7 0-3.1 1.4-3.1 3.1 0 1.7 1.4 3.1 3.1 3.1 1.7 0 3.1-1.4 3.1-3.1-.1-1.7-1.4-3.1-3.1-3.1zm0 16.5c-2.1 0-3.9-1.7-3.9-3.9 0-2.1 1.7-3.9 3.9-3.9 2.1 0 3.9 1.7 3.9 3.9-.1 2.2-1.8 3.9-3.9 3.9zm0-6.9c-1.7 0-3.1 1.4-3.1 3.1 0 1.7 1.4 3.1 3.1 3.1 1.7 0 3.1-1.4 3.1-3.1-.1-1.7-1.4-3.1-3.1-3.1zm0 16.5c-2.1 0-3.9-1.7-3.9-3.9s1.7-3.9 3.9-3.9c2.1 0 3.9 1.7 3.9 3.9s-1.8 3.9-3.9 3.9zm0-6.9c-1.7 0-3.1 1.4-3.1 3.1 0 1.7 1.4 3.1 3.1 3.1 1.7 0 3.1-1.4 3.1-3.1-.1-1.8-1.4-3.1-3.1-3.1zm0 16.4c-2.1 0-3.9-1.7-3.9-3.9 0-2.1 1.7-3.9 3.9-3.9 2.1 0 3.9 1.7 3.9 3.9-.1 2.2-1.8 3.9-3.9 3.9zm0-6.9c-1.7 0-3.1 1.4-3.1 3.1 0 1.7 1.4 3.1 3.1 3.1 1.7 0 3.1-1.4 3.1-3.1-.1-1.7-1.4-3.1-3.1-3.1z"/><path class="st6" d="M44.8 50.6l.7-.7 1.8 1.9 3.8-3.8.7.7-4.5 4.4z"/></g><g class="st4"><path class="st7" d="M70 21c0-2.8-2.2-5-5-5s-5 2.2-5 5h-6.3v10.3h22.7V21H70zm-5-1.7c.9 0 1.7.8 1.7 1.7 0 .9-.8 1.7-1.7 1.7-.9 0-1.7-.8-1.7-1.7 0-.9.8-1.7 1.7-1.7z"/><path class="st5" d="M70 21c0-2.8-2.2-5-5-5s-5 2.2-5 5h-6.3v5.1h22.7V21H70zm-5-1.7c.9 0 1.7.8 1.7 1.7 0 .9-.8 1.7-1.7 1.7-.9 0-1.7-.8-1.7-1.7 0-.9.8-1.7 1.7-1.7z"/><path class="st0" d="M53.7 25.1h22.7v1.1H53.7z"/><path class="st5" d="M53.7 26.2h22.7v1.1H53.7z"/></g></g><path class="st8" d="M71.2 81.5H58.5s1 17.9-5.2 17.9h23.1c-6.2 0-5.2-17.9-5.2-17.9z"/><path class="st9" d="M104.9 35.7H24.8c-1.3 0-2.3 1-2.3 2.3v51.4c0 1.1.9 2 2 2h80.7c1.1 0 2-.9 2-2V38c0-1.3-1-2.3-2.3-2.3z"/><path class="st0" d="M25.2 38.3h79.3v42.6H25.2z"/><path class="st8" d="M25.2 80.5h79.3V83H25.2z"/><circle class="st8" cx="64.9" cy="87.1" r="2.1"/><path class="st10" d="M53.1 99h23.6v.8H53.1z"/><path class="st9" d="M74.3 71.6H55.4V59.8c0-5.2 4.2-9.4 9.4-9.4s9.4 4.2 9.4 9.4v11.8z"/><path class="st0" d="M56 53.8h17.8V71H56z"/><path class="st11" d="M58.1 51.6c.3.4-.1.8-.5.5-.3-.4.1-.8.5-.5z"/><circle class="st12" cx="56.8" cy="51.8" r=".4"/><path class="st13" d="M59.2 51.6c.3.4-.1.8-.5.5-.3-.4.1-.8.5-.5z"/><path class="st14" d="M72.6 52.3H60.7c-.3 0-.5-.2-.5-.5s.2-.5.5-.5h11.9c.3 0 .5.2.5.5s-.2.5-.5.5z"/><path class="st9" d="M62.1 59.2l-.4.2c-.1-.1-.2-.2-.3-.2l.1-.4s0-.1-.1-.1l-.6-.1s-.1 0-.1.1l-.1.4c-.1 0-.3 0-.4.1l-.2-.4h-.1l-.4.2v.1l.2.4c-.1.1-.2.2-.2.3l-.4-.1s-.1 0-.1.1l-.1.6s0 .1.1.1l.4.1c0 .1 0 .3.1.4l-.5.1v.1l.3.5h.1l.4-.2c.1.1.2.2.3.2l-.1.5s0 .1.1.1l.6.1s.1 0 .1-.1l.1-.4c.1 0 .3 0 .4-.1l.2.4h.1l.5-.3v-.1l-.2-.4c.1-.1.2-.2.2-.3l.4.1s.1 0 .1-.1l.1-.6s0-.1-.1-.1l-.4-.1c0-.1 0-.3-.1-.4l.4-.2v-.1l-.4-.4c.1 0 0 0 0 0zm-.9 2c-.4.3-.9.1-1.2-.3-.3-.4-.1-.9.3-1.2.4-.3.9-.1 1.2.3.2.4.1 1-.3 1.2zm.8-4.8l-.2.1c-.1-.1-.1-.1-.2-.1l.1-.2-.3-.1-.1.2h-.2l-.1-.2h-.1l-.3.2v.1l.1.2c-.1.1-.1.1-.1.2l-.2-.1-.1.3.2.1v.2l-.2.1v.1l.2.3h.1l.2-.1c.1.1.1.1.2.1l-.1.2.3.1.1-.2h.2l.1.2h.1l.3-.2v-.1l-.1-.2c.1-.1.1-.1.1-.2l.2.1.1-.3-.2-.1v-.2l.2-.1v-.1l-.3-.3c.1 0 0 0 0 0zm-.5 1.2c-.2.1-.5.1-.7-.2-.1-.2-.1-.5.2-.7.2-.1.5-.1.7.2.1.2 0 .5-.2.7z"/><path class="st13" d="M59.4 56.7l-.3.2c-.1-.1-.2-.1-.3-.2l.1-.3v-.1l-.4-.1h-.1l-.1.3c-.1 0-.2 0-.3.1l-.2-.3h-.1l-.4.2v.1l.2.3c-.1.1-.1.2-.2.3L57 57h-.1l-.1.4v.1l.3.1c0 .1 0 .2.1.3l-.2.3v.1l.2.4h.1l.3-.2c.1.1.2.1.3.2l-.1.3v.1l.4.1h.1l.1-.3c.1 0 .2 0 .3-.1l.2.3h.1l.4-.2v-.1l-.2-.3c.1-.1.1-.2.2-.3l.3.1h.1l.1-.4v-.1l-.3-.1c0-.1 0-.2-.1-.3l.3-.2v-.1l-.4-.4c.1 0 .1-.1 0 0zm-.7 1.5c-.3.2-.7.1-.9-.2-.2-.3-.1-.7.2-.9.3-.2.7-.1.9.2.3.3.2.7-.2.9z"/><path class="st15" d="M66.7 59l-1.5-1.3c-.2.2-.9 1-.9 1s.6-.6.9-1l1.5 1.3.8-1 .5.4 1.3-1.3 1.8 1.3 1.5-1.6-1.5 1.7-1.8-1.2-1.3 1.2-.5-.4-.8.9z"/><ellipse transform="rotate(-3.81 64.29 58.745) scale(1.00001)" class="st16" cx="64.3" cy="58.7" rx=".1" ry=".1"/><ellipse transform="rotate(-3.859 65.218 57.71)" class="st16" cx="65.2" cy="57.7" rx=".1" ry=".1"/><ellipse transform="rotate(-3.818 66.679 58.936) scale(1.00002)" class="st16" cx="66.7" cy="58.9" rx=".1" ry=".1"/><ellipse transform="rotate(-3.861 67.52 57.994) scale(.99997)" class="st16" cx="67.5" cy="58" rx=".1" ry=".1"/><ellipse transform="rotate(-3.801 68.055 58.342)" class="st16" cx="68.1" cy="58.4" rx=".1" ry=".1"/><ellipse transform="rotate(-3.859 69.367 57.166)" class="st16" cx="69.4" cy="57.2" rx=".1" ry=".1"/><ellipse transform="rotate(-3.801 72.633 56.764)" class="st16" cx="72.6" cy="56.8" rx=".1" ry=".1"/><ellipse transform="rotate(-3.801 71.136 58.398)" class="st16" cx="71.1" cy="58.4" rx=".1" ry=".1"/><path class="st17" d="M64.2 61.6l1.3-.4.7-.3 1.2.6.8-1 1.1.1.7-1 1.2.2 1.5-.7v3.6h-8.4z"/><path class="st15" d="M65.5 66.6H57c-.1 0-.1-.1-.1-.1 0-.1.1-.1.1-.1h8.5c.1 0 .1.1.1.1l-.1.1zm0 .5H57c-.1 0-.1-.1-.1-.1 0-.1.1-.1.1-.1h8.5c.1 0 .1.1.1.1l-.1.1zm0 1.3H57c-.1 0-.1-.1-.1-.1 0-.1.1-.1.1-.1h8.5c.1 0 .1.1.1.1l-.1.1zm0 .5H57c-.1 0-.1-.1-.1-.1 0-.1.1-.1.1-.1h8.5c.1 0 .1.1.1.1l-.1.1zm5.4.9h-1.4c-1 0-1.9-.8-1.9-1.9 0-1 .8-1.9 1.9-1.9h1.4c1 0 1.9.8 1.9 1.9-.1 1.1-.9 1.9-1.9 1.9z"/><path class="st9" d="M51.9 73.7H28.5V58.6c0-6.2 5-11.2 11.2-11.2h.9c6.2 0 11.2 5 11.2 11.2v15.1z"/><path class="st0" d="M29.2 51.6h22.1v21.3H29.2z"/><path class="st11" d="M31.8 48.8c.4.5-.2 1-.7.7-.3-.5.2-1.1.7-.7z"/><circle class="st12" cx="30.1" cy="49.1" r=".4"/><path class="st13" d="M33.2 48.8c.4.5-.2 1-.7.7-.4-.5.2-1.1.7-.7z"/><path class="st14" d="M49.8 49.7H35c-.3 0-.6-.3-.6-.6s.3-.6.6-.6h14.8c.3 0 .6.3.6.6 0 .4-.2.6-.6.6z"/><defs><ellipse id="SVGID_1_" transform="rotate(-75.043 34.893 57.822)" cx="34.9" cy="57.8" rx="4.2" ry="4.2"/></defs><clipPath id="SVGID_2_"><use xlink:href="#SVGID_1_" overflow="visible"/></clipPath><ellipse transform="rotate(-75.043 34.893 57.822)" class="st18" cx="34.9" cy="57.8" rx="4.2" ry="4.2"/><g class="st19"><path class="st20" d="M34.9 57.8l3.7-5.4-7.2 1z"/><path class="st0" d="M40.9 59.8l-6-2 5.5-2.6z"/><path class="st17" d="M34.9 57.8l3.7-5.4-7.2 1z"/><path class="st9" d="M40.9 59.8l-6-2 3.7-5.4z"/></g><path class="st17" d="M47.6 62c-.3 0-.5-.2-.5-.5V58c0-.3.2-.5.5-.5s.5.2.5.5v3.5c0 .3-.2.5-.5.5z"/><path class="st10" d="M46.1 62c-.3 0-.5-.2-.5-.5v-2.7c0-.3.2-.5.5-.5s.5.2.5.5v2.7c0 .3-.3.5-.5.5z"/><path class="st21" d="M49.2 62c-.3 0-.5-.2-.5-.5v-4.3c0-.3.2-.5.5-.5s.5.2.5.5v4.3c0 .3-.2.5-.5.5z"/><path class="st15" d="M48.4 53.3h-4.6c-.2 0-.3.1-.3.3v1.7c0 .2.1.3.3.3H47c.3.5.6 1.2.6 1.2v-1.2h.7c.2 0 .3-.1.3-.3v-1.7c.1-.1 0-.3-.2-.3zm-4 7.9h-3.8c-.1 0-.2-.1-.2-.2s.1-.2.2-.2h3.8c.1 0 .2.1.2.2s-.1.2-.2.2zm0 .8h-3.8c-.1 0-.2-.1-.2-.2s.1-.2.2-.2h3.8c.1 0 .2.1.2.2s-.1.2-.2.2zm0-2.2h-3.8c-.1 0-.2-.1-.2-.2s.1-.2.2-.2h3.8c.1 0 .2.1.2.2s-.1.2-.2.2zm0 .8h-3.8c-.1 0-.2-.1-.2-.2s.1-.2.2-.2h3.8c.1 0 .2.1.2.2s-.1.2-.2.2z"/><circle class="st13" cx="32.7" cy="64.9" r=".5"/><circle class="st13" cx="34.6" cy="64.9" r=".5"/><circle class="st13" cx="36.5" cy="64.9" r=".5"/><circle class="st13" cx="38.3" cy="64.9" r=".5"/><circle class="st13" cx="40.2" cy="64.9" r=".5"/><circle class="st13" cx="42.1" cy="64.9" r=".5"/><circle class="st21" cx="44" cy="64.9" r=".5"/><circle class="st21" cx="45.8" cy="64.9" r=".5"/><circle class="st15" cx="47.7" cy="64.9" r=".5"/><circle class="st17" cx="32.7" cy="66.8" r=".5"/><circle class="st17" cx="34.6" cy="66.8" r=".5"/><circle class="st17" cx="36.5" cy="66.8" r=".5"/><circle class="st17" cx="38.3" cy="66.8" r=".5"/><circle class="st12" cx="40.2" cy="66.8" r=".5"/><circle class="st15" cx="42.1" cy="66.8" r=".5"/><circle class="st15" cx="44" cy="66.8" r=".5"/><circle class="st15" cx="45.8" cy="66.8" r=".5"/><circle class="st15" cx="47.7" cy="66.8" r=".5"/><circle class="st9" cx="32.7" cy="68.7" r=".5"/><circle class="st9" cx="34.6" cy="68.7" r=".5"/><circle class="st9" cx="36.5" cy="68.7" r=".5"/><circle class="st10" cx="38.3" cy="68.7" r=".5"/><circle class="st10" cx="40.2" cy="68.7" r=".5"/><circle class="st10" cx="42.1" cy="68.7" r=".5"/><circle class="st15" cx="44" cy="68.7" r=".5"/><circle class="st15" cx="45.8" cy="68.7" r=".5"/><circle class="st15" cx="47.7" cy="68.7" r=".5"/><circle class="st11" cx="32.7" cy="70.6" r=".5"/><circle class="st11" cx="34.6" cy="70.6" r=".5"/><circle class="st15" cx="36.5" cy="70.6" r=".5"/><circle class="st15" cx="38.3" cy="70.6" r=".5"/><circle class="st15" cx="40.2" cy="70.6" r=".5"/><circle class="st15" cx="42.1" cy="70.6" r=".5"/><circle class="st15" cx="44" cy="70.6" r=".5"/><circle class="st15" cx="45.8" cy="70.6" r=".5"/><circle class="st15" cx="47.7" cy="70.6" r=".5"/><path class="st9" d="M101.2 73.7H77.8V58.6c0-6.2 5-11.2 11.2-11.2h1c6.2 0 11.2 5 11.2 11.2v15.1z"/><path class="st0" d="M78.5 51.6h22.1v21.3H78.5z"/><path class="st11" d="M81.1 48.8c.4.5-.2 1-.7.7-.3-.5.2-1.1.7-.7z"/><circle class="st12" cx="79.4" cy="49.1" r=".4"/><path class="st13" d="M82.5 48.8c.4.5-.2 1-.7.7-.4-.5.2-1.1.7-.7z"/><path class="st14" d="M99.1 49.7H84.3c-.3 0-.6-.3-.6-.6s.3-.6.6-.6h14.8c.3 0 .6.3.6.6 0 .4-.2.6-.6.6z"/><path class="st17" d="M84.1 67.3v3.1c0 .4-.3.7-.7.7-.4 0-.7-.3-.7-.7v-3.1c0-.4.3-.7.7-.7.4 0 .7.3.7.7z"/><path class="st9" d="M86.1 64.7v5.7c0 .4-.3.7-.7.7-.4 0-.7-.3-.7-.7v-5.7c0-.4.3-.7.7-.7.4 0 .7.3.7.7z"/><path class="st17" d="M88.2 66.3v4.1c0 .4-.3.7-.7.7-.4 0-.7-.3-.7-.7v-4.1c0-.4.3-.7.7-.7.4 0 .7.3.7.7z"/><path class="st9" d="M90.2 63.9v6.5c0 .4-.3.7-.7.7-.4 0-.7-.3-.7-.7v-6.5c0-.4.3-.7.7-.7.4 0 .7.3.7.7z"/><path class="st17" d="M92.2 64.6v5.7c0 .4-.3.7-.7.7-.4 0-.7-.3-.7-.7v-5.7c0-.4.3-.7.7-.7.4.1.7.4.7.7z"/><path class="st9" d="M94.2 62.4v8c0 .4-.3.7-.7.7-.4 0-.7-.3-.7-.7v-8c0-.4.3-.7.7-.7.4 0 .7.3.7.7z"/><path class="st17" d="M96.2 61.6v8.8c0 .4-.3.7-.7.7-.4 0-.7-.3-.7-.7v-8.8c0-.4.3-.7.7-.7.4 0 .7.3.7.7z"/><circle class="st15" cx="81.2" cy="55.3" r="1.7"/><path class="st17" d="M81.2 55.4v-2.3c-1.2 0-2.1 1-2.1 2.1 0 1.2 1 2.1 2.1 2.1s2-.9 2.1-1.9h-2.1z"/><circle class="st15" cx="86.9" cy="55.3" r="1.7"/><path class="st9" d="M86.9 53.1c-1.2 0-2.1 1-2.1 2.1 0 1.2 1 2.1 2.1 2.1v-4.2z"/><circle class="st15" cx="92.5" cy="55.3" r="1.7"/><path class="st13" d="M91 56.8l1.5-1.5v-2.1c-1.2 0-2.1 1-2.1 2.1 0 .5.2 1.1.6 1.5z"/><circle class="st15" cx="98.2" cy="55.3" r="1.7"/><path class="st11" d="M98.2 53.1c-.6 0-1.1.2-1.5.6l1.5 1.5v-2.1z"/><path class="st15" d="M90 59.9H79.5c-.1 0-.2-.1-.2-.2s.1-.2.2-.2H90c.1 0 .2.1.2.2 0 .2-.1.2-.2.2zm0 .6H79.5c-.1 0-.2-.1-.2-.2s.1-.2.2-.2H90c.1 0 .2.1.2.2 0 .2-.1.2-.2.2z"/></svg>