<svg id="Objects" xmlns="http://www.w3.org/2000/svg" viewBox="0 0 130 130"><style>.st0{fill:#fff}.st1{fill:#45464f}.st2{fill:#d4d2cf}.st3{fill:#3bbc0d}.st4{fill:#e0dedc}</style><circle class="st0" cx="65" cy="65" r="65"/><path class="st1" d="M34.3 20.9c-1.2 0-2.3 1-2.3 2.3v88.6c0 1.2 1 2.3 2.3 2.3h61.3c1.2 0 2.3-1 2.3-2.3V23.1c0-1.2-1-2.3-2.3-2.3H34.3z"/><path class="st0" d="M35.8 26.2h58.4v82.5H35.8z"/><path class="st2" d="M43.2 90.9h43.5v1.3H43.2zm0 3.3h43.5v1.3H43.2zm0 3.2H65v1.3H43.2zm0-16.2h43.5v1.3H43.2zm0 3.2h43.5v1.3H43.2zm0 3.3h43.3V89H43.2zM54.9 41h31.7v1.4H54.9zm0 9.6h31.7V52H54.9zm0 9.5h31.7v1.4H54.9zm0 9.6h31.7v1.4H54.9zm-7.6-24.1c-2.1 0-3.9-1.7-3.9-3.9 0-2.1 1.7-3.9 3.9-3.9 2.1 0 3.9 1.7 3.9 3.9-.1 2.1-1.8 3.9-3.9 3.9zm0-7c-1.7 0-3.1 1.4-3.1 3.1 0 1.7 1.4 3.1 3.1 3.1 1.7 0 3.1-1.4 3.1-3.1-.1-1.7-1.4-3.1-3.1-3.1zm0 16.5c-2.1 0-3.9-1.7-3.9-3.9 0-2.1 1.7-3.9 3.9-3.9 2.1 0 3.9 1.7 3.9 3.9-.1 2.2-1.8 3.9-3.9 3.9zm0-6.9c-1.7 0-3.1 1.4-3.1 3.1 0 1.7 1.4 3.1 3.1 3.1 1.7 0 3.1-1.4 3.1-3.1-.1-1.7-1.4-3.1-3.1-3.1zm0 16.5c-2.1 0-3.9-1.7-3.9-3.9s1.7-3.9 3.9-3.9c2.1 0 3.9 1.7 3.9 3.9s-1.8 3.9-3.9 3.9zm0-6.9c-1.7 0-3.1 1.4-3.1 3.1 0 1.7 1.4 3.1 3.1 3.1 1.7 0 3.1-1.4 3.1-3.1-.1-1.8-1.4-3.1-3.1-3.1zm0 16.4c-2.1 0-3.9-1.7-3.9-3.9 0-2.1 1.7-3.9 3.9-3.9 2.1 0 3.9 1.7 3.9 3.9-.1 2.2-1.8 3.9-3.9 3.9zm0-6.9c-1.7 0-3.1 1.4-3.1 3.1 0 1.7 1.4 3.1 3.1 3.1 1.7 0 3.1-1.4 3.1-3.1-.1-1.7-1.4-3.1-3.1-3.1z"/><path class="st3" d="M44.8 50.6l.7-.7 1.8 1.9 3.8-3.8.7.7-4.5 4.4z"/><path class="st4" d="M70 21c0-2.8-2.2-5-5-5s-5 2.2-5 5h-6.3v10.3h22.7V21H70zm-5-1.7c.9 0 1.7.8 1.7 1.7 0 .9-.8 1.7-1.7 1.7-.9 0-1.7-.8-1.7-1.7 0-.9.8-1.7 1.7-1.7z"/><path class="st2" d="M70 21c0-2.8-2.2-5-5-5s-5 2.2-5 5h-6.3v5.1h22.7V21H70zm-5-1.7c.9 0 1.7.8 1.7 1.7 0 .9-.8 1.7-1.7 1.7-.9 0-1.7-.8-1.7-1.7 0-.9.8-1.7 1.7-1.7z"/><path class="st0" d="M53.7 25.1h22.7v1.1H53.7z"/><path class="st2" d="M53.7 26.2h22.7v1.1H53.7z"/></svg>