<svg id="Objects" xmlns="http://www.w3.org/2000/svg" xmlns:xlink="http://www.w3.org/1999/xlink" viewBox="0 0 130 130"><style>.st0{fill:#fff}.st0,.st1{clip-path:url(#SVGID_2_)}.st2{fill:#efb378}.st3{fill:#fc9}.st4{fill:#fff}.st5{fill:#45464f}.st6{fill:#a6dae9}.st7{fill:#b0b0b0}.st8{fill:#f1f2f2}.st9{fill:#2c465f}.st10{fill:#3bbc0d}</style><g id="Hand_shake"><defs><circle id="SVGID_1_" cx="65" cy="65" r="65"/></defs><use xlink:href="#SVGID_1_" overflow="visible" fill="#fff"/><clipPath id="SVGID_2_"><use xlink:href="#SVGID_1_" overflow="visible"/></clipPath><circle class="st0" cx="65" cy="65" r="65"/><g id="Hand_shake_1_" class="st1"><path class="st2" d="M67.8 75.8c2.9-2.4 7.1-1.9 9.5 1l6.9 8.5c2.4 2.9 1.9 7.1-1 9.5L71.9 104c-2.9 2.4-7.1 1.9-9.5-1l-6.9-8.5c-2.4-2.9-1.9-7.1 1-9.5l11.3-9.2z"/><path class="st2" d="M88.5 94.3l-13.8-2.7c-2.6-.3-4.4-2.5-4.2-5.1l.8-7.5c.3-2.6 2.5-4.4 5.1-4.2l20 2.2-7.9 17.3z"/><path class="st3" d="M60.6 73.8c-2.9-2.3-7.1-1.9-9.5 1L44.5 83c-2.3 2.9-1.9 7.1 1 9.5l9.5 8c2.9 2.3 7.1 1.9 9.5-1l6.6-8.2c2.3-2.9 1.9-7.1-1-9.5l-9.5-8z"/><path class="st3" d="M73.7 104.5c-1 1.2-2.8 1.4-4 .4L53.5 91.8c-1.2-1-1.4-2.8-.4-4 1-1.2 2.8-1.4 4-.4l16.2 13.1c1.2 1 1.3 2.8.4 4zm-4.4 4.2c-1 1.2-2.8 1.4-4 .4l-16-13.4c-1.2-1-1.4-2.8-.4-4 1-1.2 2.8-1.4 4-.4l16 13.4c1.3 1 1.4 2.8.4 4zm8.5-8.5c-1 1.2-2.8 1.4-4 .4L57.6 87.5c-1.2-1-1.4-2.8-.4-4 1-1.2 2.8-1.4 4-.4l16.2 13.1c1.2 1 1.4 2.8.4 4zm4.1-4.4c-1 1.2-2.8 1.4-4 .4L61.7 83.1c-1.2-1-1.4-2.8-.4-4 1-1.2 2.8-1.4 4-.4l16.2 13.1c1.2 1.1 1.4 2.8.4 4z"/><path class="st3" d="M42.3 93.7l14.5-1.2c2.7-.3 4.7-2.7 4.4-5.5l-.8-8.1c-.3-2.7-2.7-4.7-5.5-4.4l-14.5 1.2 1.9 18zm24.5-21.3l.6 7.8c.2 2.7 2.6 4.7 5.3 4.5l1.6-.1h.2l-.9-9.8-6.8-2.4z"/><path class="st3" d="M71.1 79.9l-9.2-2 1.4-6.6 10.3 3.3z"/><path class="st3" d="M40.7 73.7l22.7-2.4c.2.5.3 1.1.4 1.7.6 5.6-4.9 10.7-12.2 11.4-3.8.4-7.4-.5-10-2.2l-.9-8.5z"/><path transform="rotate(-74.894 40.151 82.082)" class="st4" d="M29.3 76.9H51v10.3H29.3z"/><path class="st5" d="M-29.5 76.2l66.1 17 6.1-22.5-72.2-18.6z"/><ellipse transform="rotate(-74.901 40.15 90.913)" class="st6" cx="40.2" cy="90.9" rx="1" ry="1"/><path class="st2" d="M62 73.8l-1 7.9c-.4 2.7-2.9 4.6-5.7 4.2l-1.7-.2h-.2l1.4-9.9 7.2-2z"/><path class="st2" d="M57.2 81.2l9.5-1.5-1.1-6.8-10.7 2.8z"/><path class="st2" d="M88.5 76.6l-23-3.7c-.2.5-.4 1.1-.5 1.7-.9 5.6 4.4 11.2 11.8 12.3 3.9.6 7.5-.1 10.3-1.6l1.4-8.7z"/><path transform="rotate(-15.377 87.65 83.268)" class="st4" d="M82.5 72.4h10.3v21.7H82.5z"/><path class="st7" d="M157.3 51.7L85.1 71.9l6.2 22.5 66-18.4z"/><ellipse transform="rotate(-15.35 87.685 91.88)" class="st6" cx="87.7" cy="91.9" rx="1" ry="1"/><path class="st2" d="M61.4 109.1c1 1.2 2.8 1.4 4 .4l3.4-2.8c1.2-1 1.4-2.8.4-4-1-1.2-2.8-1.4-4-.4l-3.4 2.8c-1.2 1.1-1.3 2.8-.4 4zm-4.3-4c1 1.2 2.8 1.4 4 .4l3.4-2.8c1.2-1 1.4-2.8.4-4-1-1.2-2.8-1.4-4-.4l-3.4 2.8c-1.2 1-1.4 2.8-.4 4zm-4.4-3.9c1 1.2 2.8 1.4 4 .4l3.4-2.8c1.2-1 1.4-2.8.4-4-1-1.2-2.8-1.4-4-.4l-3.4 2.8c-1.2 1-1.4 2.7-.4 4zm-4.3-4c1 1.2 2.8 1.4 4 .4l3.4-2.8c1.2-1 1.4-2.8.4-4-1-1.2-2.8-1.4-4-.4l-3.4 2.8c-1.2 1-1.4 2.8-.4 4z"/></g><g class="st1"><path class="st4" d="M41.9 24.7v30.8c0 1.2 1 2.2 2.3 2.2h40.6c1.2 0 2.2-1 2.2-2.2V24.7c0-1.2-1-2.2-2.2-2.2H44.2c-1.3-.1-2.3.9-2.3 2.2z"/><path class="st8" d="M84.8 22.4H64.1v35.3h20.6c1.2 0 2.2-1 2.2-2.2V24.7c.1-1.3-.9-2.3-2.1-2.3z"/><circle class="st9" cx="85" cy="40.1" r=".9"/><circle class="st9" cx="44.6" cy="40.1" r=".5"/><path class="st9" d="M46.3 26.4h36.4v27.3H46.3z"/><path class="st10" d="M55.1 40.5l2-1.9 5.4 5.4 11.1-11.1 2 1.9-13.1 13.1z"/></g></g></svg>